<mxfile host="65bd71144e" pages="2">
    <diagram id="am35ZdcDGT0XsCl__WvE" name="Page-1">
        <mxGraphModel dx="947" dy="333" grid="0" gridSize="10" guides="1" tooltips="1" connect="1" arrows="1" fold="1" page="0" pageScale="1" pageWidth="827" pageHeight="1169" math="0" shadow="0">
            <root>
                <mxCell id="0"/>
                <mxCell id="1" parent="0"/>
                <mxCell id="6wjSBQc9lQ99YahbL-JE-30" style="edgeStyle=orthogonalEdgeStyle;rounded=0;orthogonalLoop=1;jettySize=auto;html=1;entryX=0;entryY=0.5;entryDx=0;entryDy=0;entryPerimeter=0;" parent="1" source="iawZG_fZ0y6cAL4pEOI3-1" target="6wjSBQc9lQ99YahbL-JE-27" edge="1">
                    <mxGeometry relative="1" as="geometry"/>
                </mxCell>
                <mxCell id="iawZG_fZ0y6cAL4pEOI3-1" value="arcgis.py" style="rounded=0;whiteSpace=wrap;html=1;" parent="1" vertex="1">
                    <mxGeometry x="-260" y="140" width="140" height="60" as="geometry"/>
                </mxCell>
                <mxCell id="6wjSBQc9lQ99YahbL-JE-5" style="edgeStyle=orthogonalEdgeStyle;rounded=0;orthogonalLoop=1;jettySize=auto;html=1;entryX=0.5;entryY=0;entryDx=0;entryDy=0;entryPerimeter=0;" parent="1" source="iawZG_fZ0y6cAL4pEOI3-2" target="6wjSBQc9lQ99YahbL-JE-3" edge="1">
                    <mxGeometry relative="1" as="geometry"/>
                </mxCell>
                <mxCell id="iawZG_fZ0y6cAL4pEOI3-2" value="export2jkan.py" style="rounded=0;whiteSpace=wrap;html=1;" parent="1" vertex="1">
                    <mxGeometry x="530" y="387.5" width="120" height="60" as="geometry"/>
                </mxCell>
                <mxCell id="6wjSBQc9lQ99YahbL-JE-19" style="edgeStyle=orthogonalEdgeStyle;rounded=0;orthogonalLoop=1;jettySize=auto;html=1;dashed=1;exitX=0.5;exitY=0.88;exitDx=0;exitDy=0;exitPerimeter=0;" parent="1" source="6wjSBQc9lQ99YahbL-JE-36" target="6wjSBQc9lQ99YahbL-JE-12" edge="1">
                    <mxGeometry relative="1" as="geometry"/>
                </mxCell>
                <mxCell id="6wjSBQc9lQ99YahbL-JE-37" style="edgeStyle=orthogonalEdgeStyle;rounded=0;orthogonalLoop=1;jettySize=auto;html=1;entryX=0;entryY=0.5;entryDx=0;entryDy=0;entryPerimeter=0;" parent="1" source="iawZG_fZ0y6cAL4pEOI3-3" target="6wjSBQc9lQ99YahbL-JE-36" edge="1">
                    <mxGeometry relative="1" as="geometry"/>
                </mxCell>
                <mxCell id="iawZG_fZ0y6cAL4pEOI3-3" value="analytics.ipynb" style="rounded=0;whiteSpace=wrap;html=1;" parent="1" vertex="1">
                    <mxGeometry x="610" y="263.5" width="120" height="60" as="geometry"/>
                </mxCell>
                <mxCell id="6wjSBQc9lQ99YahbL-JE-9" style="edgeStyle=orthogonalEdgeStyle;rounded=0;orthogonalLoop=1;jettySize=auto;html=1;entryX=0;entryY=0.5;entryDx=0;entryDy=0;exitX=1;exitY=0.25;exitDx=0;exitDy=0;exitPerimeter=0;" parent="1" source="6wjSBQc9lQ99YahbL-JE-25" target="iawZG_fZ0y6cAL4pEOI3-3" edge="1">
                    <mxGeometry relative="1" as="geometry">
                        <mxPoint x="490" y="430" as="sourcePoint"/>
                        <mxPoint x="520.04" y="217.70000000000005" as="targetPoint"/>
                    </mxGeometry>
                </mxCell>
                <mxCell id="6wjSBQc9lQ99YahbL-JE-13" style="edgeStyle=orthogonalEdgeStyle;rounded=0;orthogonalLoop=1;jettySize=auto;html=1;entryX=0;entryY=0.5;entryDx=0;entryDy=0;exitX=1;exitY=0.5;exitDx=0;exitDy=0;exitPerimeter=0;" parent="1" source="6wjSBQc9lQ99YahbL-JE-25" target="iawZG_fZ0y6cAL4pEOI3-2" edge="1">
                    <mxGeometry relative="1" as="geometry">
                        <mxPoint x="490" y="430" as="sourcePoint"/>
                    </mxGeometry>
                </mxCell>
                <mxCell id="6wjSBQc9lQ99YahbL-JE-29" style="edgeStyle=orthogonalEdgeStyle;rounded=0;orthogonalLoop=1;jettySize=auto;html=1;entryX=0;entryY=0.5;entryDx=0;entryDy=0;" parent="1" source="6wjSBQc9lQ99YahbL-JE-3" target="6wjSBQc9lQ99YahbL-JE-12" edge="1">
                    <mxGeometry relative="1" as="geometry"/>
                </mxCell>
                <mxCell id="6wjSBQc9lQ99YahbL-JE-3" value="/_datasets/*.md" style="strokeWidth=2;html=1;shape=mxgraph.flowchart.multi-document;whiteSpace=wrap;" parent="1" vertex="1">
                    <mxGeometry x="535" y="500" width="110" height="70" as="geometry"/>
                </mxCell>
                <mxCell id="6wjSBQc9lQ99YahbL-JE-14" style="edgeStyle=orthogonalEdgeStyle;rounded=0;orthogonalLoop=1;jettySize=auto;html=1;entryX=0;entryY=0.75;entryDx=0;entryDy=0;exitX=1;exitY=0.5;exitDx=0;exitDy=0;exitPerimeter=0;" parent="1" source="6wjSBQc9lQ99YahbL-JE-24" target="6wjSBQc9lQ99YahbL-JE-22" edge="1">
                    <mxGeometry relative="1" as="geometry">
                        <mxPoint x="114" y="580" as="sourcePoint"/>
                        <Array as="points">
                            <mxPoint x="183" y="823"/>
                            <mxPoint x="183" y="325"/>
                        </Array>
                    </mxGeometry>
                </mxCell>
                <mxCell id="6wjSBQc9lQ99YahbL-JE-8" value="" style="edgeStyle=orthogonalEdgeStyle;rounded=0;orthogonalLoop=1;jettySize=auto;html=1;entryX=0;entryY=0.75;entryDx=0;entryDy=0;exitX=1;exitY=0.5;exitDx=0;exitDy=0;exitPerimeter=0;" parent="1" source="jpTvK8lfcGU7Ijv59aAF-4" target="6wjSBQc9lQ99YahbL-JE-22" edge="1">
                    <mxGeometry relative="1" as="geometry">
                        <mxPoint x="120" y="561.5" as="sourcePoint"/>
                    </mxGeometry>
                </mxCell>
                <mxCell id="6wjSBQc9lQ99YahbL-JE-12" value="JKAN" style="rounded=0;whiteSpace=wrap;html=1;" parent="1" vertex="1">
                    <mxGeometry x="765" y="690" width="120" height="60" as="geometry"/>
                </mxCell>
                <mxCell id="6wjSBQc9lQ99YahbL-JE-21" style="edgeStyle=orthogonalEdgeStyle;rounded=0;orthogonalLoop=1;jettySize=auto;html=1;entryX=0;entryY=0.5;entryDx=0;entryDy=0;entryPerimeter=0;" parent="1" source="6wjSBQc9lQ99YahbL-JE-17" target="6wjSBQc9lQ99YahbL-JE-32" edge="1">
                    <mxGeometry relative="1" as="geometry">
                        <mxPoint x="-6" y="340" as="targetPoint"/>
                    </mxGeometry>
                </mxCell>
                <mxCell id="6wjSBQc9lQ99YahbL-JE-17" value="/CKANOpenDataImport/" style="rounded=0;whiteSpace=wrap;html=1;" parent="1" vertex="1">
                    <mxGeometry x="-260" y="327.5" width="140" height="60" as="geometry"/>
                </mxCell>
                <mxCell id="6wjSBQc9lQ99YahbL-JE-33" style="edgeStyle=orthogonalEdgeStyle;rounded=0;orthogonalLoop=1;jettySize=auto;html=1;entryX=0;entryY=0.5;entryDx=0;entryDy=0;entryPerimeter=0;" parent="1" source="6wjSBQc9lQ99YahbL-JE-18" target="6wjSBQc9lQ99YahbL-JE-31" edge="1">
                    <mxGeometry relative="1" as="geometry"/>
                </mxCell>
                <mxCell id="6wjSBQc9lQ99YahbL-JE-18" value="dcat.py" style="rounded=0;whiteSpace=wrap;html=1;" parent="1" vertex="1">
                    <mxGeometry x="-260" y="230" width="140" height="60" as="geometry"/>
                </mxCell>
                <mxCell id="6wjSBQc9lQ99YahbL-JE-26" style="edgeStyle=orthogonalEdgeStyle;rounded=0;orthogonalLoop=1;jettySize=auto;html=1;entryX=0;entryY=0.5;entryDx=0;entryDy=0;entryPerimeter=0;" parent="1" source="6wjSBQc9lQ99YahbL-JE-22" target="6wjSBQc9lQ99YahbL-JE-25" edge="1">
                    <mxGeometry relative="1" as="geometry"/>
                </mxCell>
                <mxCell id="vneNa9cLiLTiVawrpXin-4" style="edgeStyle=orthogonalEdgeStyle;rounded=0;orthogonalLoop=1;jettySize=auto;html=1;entryX=0;entryY=0.5;entryDx=0;entryDy=0;entryPerimeter=0;" parent="1" source="6wjSBQc9lQ99YahbL-JE-22" target="vneNa9cLiLTiVawrpXin-1" edge="1">
                    <mxGeometry relative="1" as="geometry"/>
                </mxCell>
                <mxCell id="6wjSBQc9lQ99YahbL-JE-22" value="merge_data.py" style="rounded=0;whiteSpace=wrap;html=1;" parent="1" vertex="1">
                    <mxGeometry x="211" y="280" width="120" height="60" as="geometry"/>
                </mxCell>
                <mxCell id="6wjSBQc9lQ99YahbL-JE-24" value="scotgov-datasets.csv" style="strokeWidth=2;html=1;shape=mxgraph.flowchart.document2;whiteSpace=wrap;size=0.25;" parent="1" vertex="1">
                    <mxGeometry x="-49" y="788" width="160" height="70" as="geometry"/>
                </mxCell>
                <mxCell id="6wjSBQc9lQ99YahbL-JE-25" value="merged_outputs.json" style="strokeWidth=2;html=1;shape=mxgraph.flowchart.document2;whiteSpace=wrap;size=0.25;" parent="1" vertex="1">
                    <mxGeometry x="370" y="277.5" width="120" height="65" as="geometry"/>
                </mxCell>
                <mxCell id="6wjSBQc9lQ99YahbL-JE-28" style="edgeStyle=orthogonalEdgeStyle;rounded=0;orthogonalLoop=1;jettySize=auto;html=1;entryX=0;entryY=0;entryDx=0;entryDy=0;" parent="1" source="6wjSBQc9lQ99YahbL-JE-27" target="6wjSBQc9lQ99YahbL-JE-22" edge="1">
                    <mxGeometry relative="1" as="geometry">
                        <Array as="points">
                            <mxPoint x="149" y="170"/>
                            <mxPoint x="149" y="280"/>
                        </Array>
                    </mxGeometry>
                </mxCell>
                <mxCell id="6wjSBQc9lQ99YahbL-JE-27" value="/data/arcgis/*.csv" style="strokeWidth=2;html=1;shape=mxgraph.flowchart.multi-document;whiteSpace=wrap;" parent="1" vertex="1">
                    <mxGeometry x="-40" y="130" width="160" height="80" as="geometry"/>
                </mxCell>
                <mxCell id="6wjSBQc9lQ99YahbL-JE-34" style="edgeStyle=orthogonalEdgeStyle;rounded=0;orthogonalLoop=1;jettySize=auto;html=1;entryX=0;entryY=0.25;entryDx=0;entryDy=0;" parent="1" source="6wjSBQc9lQ99YahbL-JE-31" target="6wjSBQc9lQ99YahbL-JE-22" edge="1">
                    <mxGeometry relative="1" as="geometry">
                        <Array as="points">
                            <mxPoint x="140" y="260"/>
                            <mxPoint x="140" y="295"/>
                        </Array>
                    </mxGeometry>
                </mxCell>
                <mxCell id="6wjSBQc9lQ99YahbL-JE-31" value="/data/USMART/*.csv" style="strokeWidth=2;html=1;shape=mxgraph.flowchart.multi-document;whiteSpace=wrap;" parent="1" vertex="1">
                    <mxGeometry x="-40" y="220" width="154" height="80" as="geometry"/>
                </mxCell>
                <mxCell id="6wjSBQc9lQ99YahbL-JE-35" style="edgeStyle=orthogonalEdgeStyle;rounded=0;orthogonalLoop=1;jettySize=auto;html=1;entryX=0;entryY=0.5;entryDx=0;entryDy=0;" parent="1" source="6wjSBQc9lQ99YahbL-JE-32" target="6wjSBQc9lQ99YahbL-JE-22" edge="1">
                    <mxGeometry relative="1" as="geometry">
                        <Array as="points">
                            <mxPoint x="133" y="358"/>
                            <mxPoint x="133" y="310"/>
                        </Array>
                    </mxGeometry>
                </mxCell>
                <mxCell id="6wjSBQc9lQ99YahbL-JE-32" value="ckan_output.csv" style="strokeWidth=2;html=1;shape=mxgraph.flowchart.document2;whiteSpace=wrap;size=0.25;" parent="1" vertex="1">
                    <mxGeometry x="-40" y="322.5" width="154" height="70" as="geometry"/>
                </mxCell>
                <mxCell id="6wjSBQc9lQ99YahbL-JE-36" value="/analytics/*.png" style="strokeWidth=2;html=1;shape=mxgraph.flowchart.multi-document;whiteSpace=wrap;" parent="1" vertex="1">
                    <mxGeometry x="770" y="258.5" width="110" height="70" as="geometry"/>
                </mxCell>
                <mxCell id="6wjSBQc9lQ99YahbL-JE-40" value="*manual scrape" style="text;html=1;strokeColor=none;fillColor=none;align=center;verticalAlign=middle;whiteSpace=wrap;rounded=0;" parent="1" vertex="1">
                    <mxGeometry x="24" y="858" width="90" height="18" as="geometry"/>
                </mxCell>
                <mxCell id="vneNa9cLiLTiVawrpXin-5" style="edgeStyle=orthogonalEdgeStyle;rounded=0;orthogonalLoop=1;jettySize=auto;html=1;entryX=0;entryY=0.25;entryDx=0;entryDy=0;" parent="1" source="vneNa9cLiLTiVawrpXin-1" target="iawZG_fZ0y6cAL4pEOI3-3" edge="1">
                    <mxGeometry relative="1" as="geometry"/>
                </mxCell>
                <mxCell id="vneNa9cLiLTiVawrpXin-1" value="merged_outputs&lt;br&gt;_untidy.json" style="strokeWidth=2;html=1;shape=mxgraph.flowchart.document2;whiteSpace=wrap;size=0.25;" parent="1" vertex="1">
                    <mxGeometry x="378" y="159" width="120" height="65" as="geometry"/>
                </mxCell>
                <mxCell id="vneNa9cLiLTiVawrpXin-2" value="*collated but not tidied - retained for analysis purposes" style="text;html=1;strokeColor=none;fillColor=none;align=left;verticalAlign=middle;whiteSpace=wrap;rounded=0;" parent="1" vertex="1">
                    <mxGeometry x="505" y="134" width="137" height="42" as="geometry"/>
                </mxCell>
                <mxCell id="RpWgY379b9P3FpeYT_RZ-3" style="edgeStyle=orthogonalEdgeStyle;rounded=0;orthogonalLoop=1;jettySize=auto;html=1;entryX=0;entryY=0.5;entryDx=0;entryDy=0;entryPerimeter=0;" parent="1" source="RpWgY379b9P3FpeYT_RZ-1" target="L8qjhWhkhS8OsVjVU4nI-1" edge="1">
                    <mxGeometry relative="1" as="geometry">
                        <mxPoint x="-99" y="501" as="targetPoint"/>
                    </mxGeometry>
                </mxCell>
                <mxCell id="RpWgY379b9P3FpeYT_RZ-1" value="dcat.py" style="rounded=0;whiteSpace=wrap;html=1;" parent="1" vertex="1">
                    <mxGeometry x="-260" y="415" width="140" height="60" as="geometry"/>
                </mxCell>
                <mxCell id="RpWgY379b9P3FpeYT_RZ-4" style="edgeStyle=orthogonalEdgeStyle;rounded=0;orthogonalLoop=1;jettySize=auto;html=1;entryX=0;entryY=0.75;entryDx=0;entryDy=0;exitX=1;exitY=0.5;exitDx=0;exitDy=0;exitPerimeter=0;" parent="1" source="L8qjhWhkhS8OsVjVU4nI-1" target="6wjSBQc9lQ99YahbL-JE-22" edge="1">
                    <mxGeometry relative="1" as="geometry">
                        <mxPoint x="114" y="445" as="sourcePoint"/>
                        <Array as="points">
                            <mxPoint x="148" y="445"/>
                            <mxPoint x="148" y="325"/>
                        </Array>
                    </mxGeometry>
                </mxCell>
                <mxCell id="L8qjhWhkhS8OsVjVU4nI-1" value="/data/dcat/*.csv" style="strokeWidth=2;html=1;shape=mxgraph.flowchart.multi-document;whiteSpace=wrap;" parent="1" vertex="1">
                    <mxGeometry x="-40" y="405" width="154" height="80" as="geometry"/>
                </mxCell>
                <mxCell id="jpTvK8lfcGU7Ijv59aAF-9" style="edgeStyle=orthogonalEdgeStyle;rounded=0;orthogonalLoop=1;jettySize=auto;html=1;entryX=0;entryY=0.5;entryDx=0;entryDy=0;entryPerimeter=0;" parent="1" source="jpTvK8lfcGU7Ijv59aAF-1" target="jpTvK8lfcGU7Ijv59aAF-4" edge="1">
                    <mxGeometry relative="1" as="geometry"/>
                </mxCell>
                <mxCell id="jpTvK8lfcGU7Ijv59aAF-1" value="aberdeenshire_council&lt;br&gt;_scraper.py" style="rounded=0;whiteSpace=wrap;html=1;" parent="1" vertex="1">
                    <mxGeometry x="-258" y="515" width="140" height="60" as="geometry"/>
                </mxCell>
                <mxCell id="jpTvK8lfcGU7Ijv59aAF-10" style="edgeStyle=orthogonalEdgeStyle;rounded=0;orthogonalLoop=1;jettySize=auto;html=1;entryX=0;entryY=0.5;entryDx=0;entryDy=0;entryPerimeter=0;" parent="1" source="jpTvK8lfcGU7Ijv59aAF-2" target="jpTvK8lfcGU7Ijv59aAF-5" edge="1">
                    <mxGeometry relative="1" as="geometry"/>
                </mxCell>
                <mxCell id="jpTvK8lfcGU7Ijv59aAF-2" value="east_ayrshire&lt;br&gt;_scraper.py" style="rounded=0;whiteSpace=wrap;html=1;" parent="1" vertex="1">
                    <mxGeometry x="-260" y="591" width="140" height="60" as="geometry"/>
                </mxCell>
                <mxCell id="jpTvK8lfcGU7Ijv59aAF-11" style="edgeStyle=orthogonalEdgeStyle;rounded=0;orthogonalLoop=1;jettySize=auto;html=1;entryX=0;entryY=0.5;entryDx=0;entryDy=0;entryPerimeter=0;" parent="1" source="jpTvK8lfcGU7Ijv59aAF-3" target="jpTvK8lfcGU7Ijv59aAF-6" edge="1">
                    <mxGeometry relative="1" as="geometry"/>
                </mxCell>
                <mxCell id="jpTvK8lfcGU7Ijv59aAF-3" value="moray_council&lt;br&gt;_scraper.py" style="rounded=0;whiteSpace=wrap;html=1;" parent="1" vertex="1">
                    <mxGeometry x="-260" y="669" width="140" height="60" as="geometry"/>
                </mxCell>
                <mxCell id="jpTvK8lfcGU7Ijv59aAF-4" value="aberdeenshire.csv" style="strokeWidth=2;html=1;shape=mxgraph.flowchart.document2;whiteSpace=wrap;size=0.25;" parent="1" vertex="1">
                    <mxGeometry x="-46" y="510" width="160" height="70" as="geometry"/>
                </mxCell>
                <mxCell id="jpTvK8lfcGU7Ijv59aAF-5" value="output_east_ayrshire.csv" style="strokeWidth=2;html=1;shape=mxgraph.flowchart.document2;whiteSpace=wrap;size=0.25;" parent="1" vertex="1">
                    <mxGeometry x="-46" y="586" width="160" height="70" as="geometry"/>
                </mxCell>
                <mxCell id="jpTvK8lfcGU7Ijv59aAF-6" value="output_moray.csv" style="strokeWidth=2;html=1;shape=mxgraph.flowchart.document2;whiteSpace=wrap;size=0.25;" parent="1" vertex="1">
                    <mxGeometry x="-46" y="664" width="160" height="70" as="geometry"/>
                </mxCell>
                <mxCell id="jpTvK8lfcGU7Ijv59aAF-7" value="" style="edgeStyle=orthogonalEdgeStyle;rounded=0;orthogonalLoop=1;jettySize=auto;html=1;exitX=1;exitY=0.5;exitDx=0;exitDy=0;exitPerimeter=0;" parent="1" source="jpTvK8lfcGU7Ijv59aAF-5" edge="1">
                    <mxGeometry relative="1" as="geometry">
                        <mxPoint x="124" y="555" as="sourcePoint"/>
                        <mxPoint x="212" y="325" as="targetPoint"/>
                        <Array as="points">
                            <mxPoint x="163" y="621"/>
                            <mxPoint x="163" y="325"/>
                        </Array>
                    </mxGeometry>
                </mxCell>
                <mxCell id="jpTvK8lfcGU7Ijv59aAF-8" value="" style="edgeStyle=orthogonalEdgeStyle;rounded=0;orthogonalLoop=1;jettySize=auto;html=1;exitX=1;exitY=0.5;exitDx=0;exitDy=0;exitPerimeter=0;" parent="1" source="jpTvK8lfcGU7Ijv59aAF-6" edge="1">
                    <mxGeometry relative="1" as="geometry">
                        <mxPoint x="124" y="631" as="sourcePoint"/>
                        <mxPoint x="211" y="325" as="targetPoint"/>
                        <Array as="points">
                            <mxPoint x="162" y="699"/>
                            <mxPoint x="162" y="325"/>
                        </Array>
                    </mxGeometry>
                </mxCell>
            </root>
        </mxGraphModel>
    </diagram>
    <diagram id="zoM-Pek0Bsrga04cCjJN" name="Page-2">
        <mxGraphModel dx="586" dy="756" grid="1" gridSize="10" guides="1" tooltips="1" connect="1" arrows="1" fold="1" page="1" pageScale="1" pageWidth="827" pageHeight="1169" math="0" shadow="0">
            <root>
                <mxCell id="sZeJhPq6gZ2xusG9fjjw-0"/>
                <mxCell id="sZeJhPq6gZ2xusG9fjjw-1" parent="sZeJhPq6gZ2xusG9fjjw-0"/>
                <mxCell id="sZeJhPq6gZ2xusG9fjjw-2" value="arcgis API" style="rounded=0;whiteSpace=wrap;html=1;fillColor=none;" vertex="1" parent="sZeJhPq6gZ2xusG9fjjw-1">
                    <mxGeometry x="50" y="240" width="120" height="60" as="geometry"/>
                </mxCell>
                <mxCell id="sZeJhPq6gZ2xusG9fjjw-3" value="ckan API" style="rounded=0;whiteSpace=wrap;html=1;fillColor=none;" vertex="1" parent="sZeJhPq6gZ2xusG9fjjw-1">
                    <mxGeometry x="50" y="310" width="120" height="60" as="geometry"/>
                </mxCell>
                <mxCell id="sZeJhPq6gZ2xusG9fjjw-4" value="manual extraction" style="rounded=0;whiteSpace=wrap;html=1;fillColor=none;" vertex="1" parent="sZeJhPq6gZ2xusG9fjjw-1">
                    <mxGeometry x="50" y="390" width="120" height="60" as="geometry"/>
                </mxCell>
                <mxCell id="sZeJhPq6gZ2xusG9fjjw-5" value="USMART API" style="rounded=0;whiteSpace=wrap;html=1;fillColor=none;" vertex="1" parent="sZeJhPq6gZ2xusG9fjjw-1">
                    <mxGeometry x="50" y="470" width="120" height="60" as="geometry"/>
                </mxCell>
            </root>
        </mxGraphModel>
    </diagram>
</mxfile>